<?xml version="1.0" standalone="no"?>
<!DOCTYPE svg PUBLIC "-//W3C//DTD SVG 20010904//EN"
 "http://www.w3.org/TR/2001/REC-SVG-20010904/DTD/svg10.dtd">
<svg version="1.0" xmlns="http://www.w3.org/2000/svg"
 width="512.000000pt" height="512.000000pt" viewBox="0 0 512.000000 512.000000"
 preserveAspectRatio="xMidYMid meet">
<metadata>
Created by potrace 1.11, written by Peter Selinger 2001-2013
</metadata>
<g transform="translate(0.000000,512.000000) scale(0.100000,-0.100000)"
fill="#000000" stroke="none">
<path d="M2419 4746 c-2 -2 -31 -7 -64 -10 -72 -7 -99 -12 -185 -32 -36 -9
-69 -17 -75 -18 -19 -4 -91 -28 -160 -53 -176 -65 -412 -204 -559 -331 -67
-58 -82 -64 -191 -88 -129 -27 -254 -73 -399 -145 -125 -63 -199 -127 -222
-193 -15 -42 19 -148 106 -328 23 -48 53 -98 66 -112 l25 -25 -20 -68 c-40
-136 -65 -244 -77 -333 -3 -25 -8 -54 -10 -65 -15 -78 -20 -293 -10 -435 7
-100 8 -112 21 -200 5 -30 9 -59 10 -65 0 -5 -27 -26 -62 -45 l-62 -36 14 -29
c55 -117 85 -187 85 -198 -1 -6 -45 -33 -98 -59 -99 -49 -311 -159 -347 -181
-11 -7 -22 -13 -24 -14 -2 -1 14 -37 35 -80 21 -43 38 -80 39 -83 1 -3 22 -48
47 -100 25 -52 69 -144 98 -205 29 -60 69 -146 90 -190 21 -44 71 -147 110
-230 40 -82 80 -169 91 -192 10 -24 21 -43 24 -43 3 0 53 32 112 72 132 89
326 189 422 218 l73 22 -39 22 c-21 12 -77 41 -125 66 -84 43 -108 64 -91 81
4 4 48 28 97 54 l89 46 36 -34 c20 -19 47 -43 60 -53 13 -11 28 -24 35 -29 6
-6 38 -31 71 -55 33 -25 62 -48 63 -52 2 -5 8 -8 13 -8 4 0 39 -20 76 -44 192
-124 489 -236 691 -261 12 -1 24 -4 26 -6 2 -2 27 -53 55 -114 122 -257 231
-301 351 -142 20 26 60 95 90 155 l55 108 65 13 c79 16 95 19 95 21 0 1 11 3
24 6 93 17 393 146 484 208 21 14 40 26 43 26 7 0 189 133 196 144 4 6 8 7 8
1 0 -5 16 8 35 28 19 20 38 37 41 37 4 0 15 10 25 21 l19 22 100 -60 c76 -45
98 -62 88 -70 -7 -6 -64 -37 -126 -68 -62 -32 -111 -59 -110 -60 2 -1 39 -15
83 -30 129 -44 219 -92 433 -232 76 -49 102 -58 102 -33 0 5 28 67 61 137 34
70 78 164 99 208 21 44 71 150 112 235 41 85 89 187 107 225 18 39 56 120 86
180 40 83 50 113 41 121 -11 12 -207 117 -373 201 -92 46 -102 57 -83 91 16
28 80 174 80 183 0 4 -27 23 -60 41 -65 36 -64 31 -46 125 21 109 29 459 13
593 -29 247 -107 512 -210 717 l-34 66 43 76 c49 86 61 129 44 161 -14 26
-145 89 -296 143 -60 22 -82 36 -145 100 -67 66 -109 105 -190 172 -59 48
-221 150 -309 193 -184 91 -263 119 -480 169 -14 3 -36 7 -50 9 -14 2 -43 7
-65 10 -46 8 -399 16 -406 10z"/>
</g>
</svg>
